<svg width="12" height="12" viewBox="0 0 12 12" fill="none" xmlns="http://www.w3.org/2000/svg">
<path d="M6 10.9465C3.2385 10.9465 1 8.70803 1 5.94653C1 3.18503 3.2385 0.946533 6 0.946533C8.7615 0.946533 11 3.18553 11 5.94653C11 8.70753 8.7615 10.9465 6 10.9465ZM6 3.44653C5.86739 3.44653 5.74021 3.49921 5.64645 3.59298C5.55268 3.68675 5.5 3.81393 5.5 3.94653V6.44653C5.5 6.57914 5.55268 6.70632 5.64645 6.80009C5.74021 6.89386 5.86739 6.94653 6 6.94653C6.13261 6.94653 6.25979 6.89386 6.35355 6.80009C6.44732 6.70632 6.5 6.57914 6.5 6.44653V3.94653C6.5 3.81393 6.44732 3.68675 6.35355 3.59298C6.25979 3.49921 6.13261 3.44653 6 3.44653ZM6 8.44653C6.13261 8.44653 6.25979 8.39386 6.35355 8.30009C6.44732 8.20632 6.5 8.07914 6.5 7.94653C6.5 7.81392 6.44732 7.68675 6.35355 7.59298C6.25979 7.49921 6.13261 7.44653 6 7.44653C5.86739 7.44653 5.74021 7.49921 5.64645 7.59298C5.55268 7.68675 5.5 7.81392 5.5 7.94653C5.5 8.07914 5.55268 8.20632 5.64645 8.30009C5.74021 8.39386 5.86739 8.44653 6 8.44653Z" fill="#FF8F8F"/>
</svg>
