<svg width="60" height="60" viewBox="0 0 60 60" fill="none" xmlns="http://www.w3.org/2000/svg">
<path d="M30 0C24.0666 0 18.2664 1.75947 13.3329 5.05591C8.39943 8.35235 4.55426 13.0377 2.28363 18.5195C0.0129981 24.0013 -0.581101 30.0333 0.576455 35.8527C1.73401 41.6721 4.59123 47.0176 8.78681 51.2132C12.9824 55.4088 18.3279 58.266 24.1473 59.4235C29.9667 60.5811 35.9987 59.987 41.4805 57.7164C46.9623 55.4457 51.6476 51.6006 54.9441 46.6671C58.2405 41.7336 60 35.9334 60 30C59.9913 22.0462 56.8278 14.4206 51.2036 8.79644C45.5794 3.17224 37.9538 0.00873479 30 0ZM30 57.6C24.5412 57.6 19.2051 55.9813 14.6663 52.9485C10.1275 49.9158 6.58992 45.6053 4.50094 40.5621C2.41196 35.5188 1.86539 29.9694 2.93034 24.6155C3.99529 19.2616 6.62394 14.3438 10.4839 10.4838C14.3438 6.62392 19.2616 3.99528 24.6155 2.93033C29.9694 1.86537 35.5188 2.41195 40.5621 4.50092C45.6053 6.5899 49.9158 10.1275 52.9486 14.6663C55.9813 19.2051 57.6 24.5412 57.6 30C57.5921 37.3175 54.6817 44.3331 49.5074 49.5074C44.3331 54.6816 37.3175 57.592 30 57.6Z" fill="black"/>
<path d="M40.3129 26.25C40.059 26.25 39.8393 26.1572 39.6537 25.9717C39.4682 25.7861 39.3754 25.5664 39.3754 25.3125C39.3754 24.9219 39.3021 24.5557 39.1557 24.2139C39.0092 23.8721 38.809 23.5742 38.5551 23.3203C38.3012 23.0664 38.0033 22.8662 37.6615 22.7197C37.3197 22.5732 36.9535 22.5 36.5629 22.5C36.309 22.5 36.0893 22.4072 35.9037 22.2217C35.7182 22.0361 35.6254 21.8164 35.6254 21.5625C35.6254 21.3086 35.7182 21.0889 35.9037 20.9033C36.0893 20.7178 36.309 20.625 36.5629 20.625C37.2074 20.625 37.8129 20.7471 38.3793 20.9912C38.9457 21.2354 39.4437 21.5674 39.8734 21.9873C40.3031 22.4072 40.64 22.9053 40.8842 23.4814C41.1283 24.0576 41.2504 24.668 41.2504 25.3125C41.2504 25.5664 41.1576 25.7861 40.9721 25.9717C40.7865 26.1572 40.5668 26.25 40.3129 26.25ZM23.4379 18.75C24.0824 18.75 24.6879 18.8721 25.2543 19.1162C25.8207 19.3604 26.3187 19.6924 26.7484 20.1123C27.1781 20.5322 27.515 21.0303 27.7592 21.6064C28.0033 22.1826 28.1254 22.793 28.1254 23.4375C28.1254 23.6914 28.0326 23.9111 27.8471 24.0967C27.6615 24.2822 27.4418 24.375 27.1879 24.375C26.934 24.375 26.7143 24.2822 26.5287 24.0967C26.3432 23.9111 26.2504 23.6914 26.2504 23.4375C26.2504 23.0469 26.1771 22.6807 26.0307 22.3389C25.8842 21.9971 25.684 21.6992 25.4301 21.4453C25.1762 21.1914 24.8783 20.9912 24.5365 20.8447C24.1947 20.6982 23.8285 20.625 23.4379 20.625C23.184 20.625 22.9643 20.5322 22.7787 20.3467C22.5932 20.1611 22.5004 19.9414 22.5004 19.6875C22.5004 19.4336 22.5932 19.2139 22.7787 19.0283C22.9643 18.8428 23.184 18.75 23.4379 18.75ZM37.5004 37.1631C37.5004 37.3584 37.4955 37.583 37.4857 37.8369C37.476 38.0908 37.4857 38.3301 37.515 38.5547C37.5443 38.7793 37.6371 38.9697 37.7934 39.126C37.9496 39.2822 38.1644 39.3652 38.4379 39.375C39.0824 39.375 39.6879 39.4971 40.2543 39.7412C40.8207 39.9854 41.3187 40.3174 41.7484 40.7373C42.1781 41.1572 42.515 41.6553 42.7592 42.2314C43.0033 42.8076 43.1254 43.418 43.1254 44.0625C43.1254 44.3164 43.0326 44.5361 42.8471 44.7217C42.6615 44.9072 42.4418 45 42.1879 45C41.934 45 41.7143 44.9072 41.5287 44.7217C41.3432 44.5361 41.2504 44.3164 41.2504 44.0625C41.2504 43.6719 41.1771 43.3057 41.0307 42.9639C40.8842 42.6221 40.684 42.3242 40.4301 42.0703C40.1762 41.8164 39.8783 41.6162 39.5365 41.4697C39.1947 41.3232 38.8285 41.25 38.4379 41.25C38.0473 41.25 37.6811 41.1768 37.3393 41.0303C36.9975 40.8838 36.6996 40.6836 36.4457 40.4297C36.1918 40.1758 35.9916 39.8779 35.8451 39.5361C35.6986 39.1943 35.6254 38.8281 35.6254 38.4375V37.1631C34.268 36.5186 33.0619 35.6738 32.0072 34.6289C30.9525 33.584 30.1029 32.3828 29.4584 31.0254C28.8139 31.9434 28.0619 32.7637 27.2025 33.4863C26.3432 34.209 25.4008 34.8096 24.3754 35.2881V36.5625C24.3754 36.9531 24.4486 37.3193 24.5951 37.6611C24.7416 38.0029 24.9418 38.3008 25.1957 38.5547C25.4496 38.8086 25.7475 39.0088 26.0893 39.1553C26.431 39.3018 26.7973 39.375 27.1879 39.375H28.6527C29.1117 39.375 29.5512 39.4043 29.9711 39.4629C30.391 39.5215 30.7963 39.6582 31.1869 39.873C31.5775 40.0879 31.973 40.3809 32.3734 40.752C32.8227 41.2012 33.1644 41.7041 33.3988 42.2607C33.6332 42.8174 33.7504 43.418 33.7504 44.0625C33.7504 44.3164 33.6576 44.5361 33.4721 44.7217C33.2865 44.9072 33.0668 45 32.8129 45C32.559 45 32.3393 44.9072 32.1537 44.7217C31.9682 44.5361 31.8754 44.3164 31.8754 44.0625C31.8754 43.6719 31.8021 43.3057 31.6557 42.9639C31.5092 42.6221 31.309 42.3242 31.0551 42.0703C30.8012 41.8164 30.5033 41.6162 30.1615 41.4697C29.8197 41.3232 29.4535 41.25 29.0629 41.25H27.1879C26.5434 41.25 25.9379 41.1279 25.3715 40.8838C24.8051 40.6396 24.307 40.3076 23.8773 39.8877C23.4477 39.4678 23.1107 38.9697 22.8666 38.3936C22.6225 37.8174 22.5004 37.207 22.5004 36.5625V35.2881C21.3578 34.751 20.3227 34.0674 19.3949 33.2373C18.4672 32.4072 17.681 31.4795 17.0365 30.4541C16.392 29.4287 15.8891 28.3203 15.5277 27.1289C15.1664 25.9375 14.9906 24.707 15.0004 23.4375C15.0004 22.2754 15.2201 21.1816 15.6596 20.1562C16.099 19.1309 16.7045 18.2373 17.476 17.4756C18.2475 16.7139 19.141 16.1133 20.1566 15.6738C21.1723 15.2344 22.266 15.0098 23.4379 15C24.1898 15 24.9223 15.0977 25.6352 15.293C26.348 15.4883 27.0219 15.7666 27.6566 16.1279C28.2914 16.4893 28.8725 16.9336 29.3998 17.4609C29.9271 17.9883 30.3764 18.5791 30.7475 19.2334C31.5287 18.4717 32.4174 17.8906 33.4135 17.4902C34.4096 17.0898 35.4594 16.8848 36.5629 16.875C37.725 16.875 38.8187 17.0947 39.8441 17.5342C40.8695 17.9736 41.7631 18.5791 42.5248 19.3506C43.2865 20.1221 43.8871 21.0156 44.3266 22.0312C44.766 23.0469 44.9906 24.1406 45.0004 25.3125C45.0004 26.582 44.8246 27.8076 44.473 28.9893C44.1215 30.1709 43.6234 31.2793 42.9789 32.3145C42.3344 33.3496 41.5434 34.2822 40.6059 35.1123C39.6684 35.9424 38.6332 36.626 37.5004 37.1631ZM23.4379 33.6621C24.4437 33.2031 25.3471 32.6221 26.1478 31.9189C26.9486 31.2158 27.6371 30.415 28.2133 29.5166C28.7894 28.6182 29.2289 27.6611 29.5316 26.6455C29.8344 25.6299 29.9906 24.5605 30.0004 23.4375C30.0004 22.5293 29.8295 21.6797 29.4877 20.8887C29.1459 20.0977 28.6771 19.4043 28.0814 18.8086C27.4857 18.2129 26.7924 17.7441 26.0014 17.4023C25.2103 17.0605 24.3559 16.8848 23.4379 16.875C22.5297 16.875 21.6801 17.0459 20.8891 17.3877C20.098 17.7295 19.4047 18.1982 18.809 18.7939C18.2133 19.3896 17.7445 20.083 17.4027 20.874C17.0609 21.665 16.8852 22.5195 16.8754 23.4375C16.8754 24.541 17.0268 25.6055 17.3295 26.6309C17.6322 27.6562 18.0717 28.6182 18.6478 29.5166C19.224 30.415 19.9125 31.2109 20.7133 31.9043C21.5141 32.5977 22.4223 33.1836 23.4379 33.6621ZM30.6449 28.9893C30.8891 29.7119 31.2064 30.4004 31.5971 31.0547C31.9877 31.709 32.432 32.3145 32.9301 32.8711C33.4281 33.4277 33.9848 33.9307 34.6 34.3799C35.2152 34.8291 35.8695 35.2148 36.5629 35.5371C37.5687 35.0781 38.4721 34.4971 39.2728 33.7939C40.0736 33.0908 40.7621 32.29 41.3383 31.3916C41.9144 30.4932 42.3539 29.5361 42.6566 28.5205C42.9594 27.5049 43.1156 26.4355 43.1254 25.3125C43.1254 24.4043 42.9545 23.5547 42.6127 22.7637C42.2709 21.9727 41.8021 21.2793 41.2064 20.6836C40.6107 20.0879 39.9174 19.6191 39.1264 19.2773C38.3353 18.9355 37.4809 18.7598 36.5629 18.75C35.5863 18.75 34.6635 18.9551 33.7943 19.3652C32.9252 19.7754 32.1781 20.3613 31.5531 21.123C31.6605 21.4941 31.7387 21.875 31.7875 22.2656C31.8363 22.6562 31.8656 23.0469 31.8754 23.4375C31.8754 24.4043 31.7728 25.3516 31.5678 26.2793C31.3627 27.207 31.0551 28.1104 30.6449 28.9893Z" fill="black"/>
</svg>
