<svg width="24" height="24" viewBox="0 0 24 24" fill="none" xmlns="http://www.w3.org/2000/svg">
<path d="M8.00006 16.607C9.15006 17.467 10.5181 17.987 12.0001 18C16.1421 18.034 19.5941 14.08 19.5601 9.80401C19.5271 5.53001 16.1421 2.03401 12.0001 2.00001C7.85806 1.96601 4.52706 5.40401 4.56006 9.68001C4.57326 10.8203 4.80547 11.9474 5.24406 13" stroke="black" stroke-width="1.5" stroke-linecap="round"/>
<path d="M15.5002 9C15.4911 8.20717 15.1721 7.44938 14.6114 6.88873C14.0508 6.32808 13.293 6.00909 12.5002 6M12.0002 20.35C12.3212 20.35 12.4822 20.35 12.5932 20.328C13.2472 20.2 13.6442 19.556 13.4512 18.938C13.4182 18.833 13.3422 18.696 13.1902 18.423M12.0002 20.35C11.6792 20.35 11.5182 20.35 11.4072 20.328C10.7532 20.2 10.3562 19.556 10.5492 18.938C10.5822 18.833 10.6582 18.696 10.8102 18.423M12.0002 20.35V22.5" stroke="black" stroke-width="1.5" stroke-linecap="round"/>
</svg>
