<svg width="61" height="60" viewBox="0 0 61 60" fill="none" xmlns="http://www.w3.org/2000/svg">
<path d="M25.7593 6.40723C24.7873 6.21705 23.7797 6.31441 22.8638 6.6875C21.9478 7.0607 21.1634 7.69287 20.6118 8.50488C20.0602 9.31692 19.7661 10.2726 19.7661 11.25C19.7662 12.5607 20.2958 13.8166 21.2368 14.7422C22.1777 15.6676 23.4529 16.1875 24.7817 16.1875C25.7725 16.1874 26.7414 15.8982 27.5659 15.3564C28.3906 14.8144 29.0344 14.0432 29.4146 13.1406C29.7947 12.2379 29.8945 11.2438 29.7007 10.2852C29.5068 9.32676 29.0283 8.44697 28.3267 7.75684C27.625 7.06667 26.7314 6.59745 25.7593 6.40723ZM24.0786 17.5273L23.8638 17.4971C22.2557 17.2688 20.7956 16.4493 19.7778 15.2061C18.7604 13.963 18.2604 12.3873 18.3765 10.7969C18.4927 9.20643 19.2168 7.71752 20.4048 6.62988C21.593 5.54206 23.1569 4.93652 24.7817 4.93652C26.4065 4.93659 27.9705 5.54211 29.1587 6.62988C30.3465 7.7175 31.0708 9.20654 31.187 10.7969C31.3031 12.3874 30.8022 13.9629 29.7847 15.2061C28.767 16.4493 27.3077 17.2687 25.6997 17.4971L25.4849 17.5273V21.8682L25.7583 21.8418C26.0588 21.8127 26.3666 21.8125 26.688 21.8125H40.0317C40.2193 21.8126 40.3983 21.8855 40.5298 22.0146C40.6612 22.1439 40.7349 22.319 40.7349 22.5C40.7348 22.6809 40.6611 22.8552 40.5298 22.9844C40.3983 23.1136 40.2194 23.1874 40.0317 23.1875H26.688C26.3593 23.1875 26.0363 23.2013 25.7183 23.2227L25.4849 23.2383V31.1875H45.7505C45.8819 31.1874 46.0103 31.2234 46.1216 31.291C46.2328 31.3586 46.3224 31.4545 46.3804 31.5684L53.6362 45.8418L53.7329 46.0332L53.937 45.9658L58.8696 44.3486C59.0472 44.2903 59.2414 44.3038 59.4087 44.3857C59.5342 44.4473 59.6366 44.5434 59.7046 44.6602L59.7603 44.7832C59.7889 44.8682 59.8009 44.9577 59.7944 45.0469C59.788 45.1364 59.7631 45.2241 59.7222 45.3047C59.6812 45.3851 59.6247 45.4573 59.5552 45.5166C59.4855 45.576 59.4039 45.6215 59.3159 45.6504L53.5972 47.5254L53.5952 47.5264C53.5246 47.5501 53.4503 47.5624 53.3755 47.5625C53.244 47.5626 53.1147 47.5266 53.0034 47.459C52.8921 47.3914 52.8026 47.2946 52.7446 47.1807L45.3843 32.6992L45.3149 32.5625H24.7817C24.5939 32.5625 24.4143 32.4888 24.2827 32.3594C24.1514 32.2302 24.0787 32.0559 24.0786 31.875V23.416L23.7788 23.4756C20.2473 24.184 17.1078 26.1579 14.9702 29.0146C12.8327 31.8715 11.8489 35.4081 12.2114 38.9385C12.574 42.469 14.2572 45.7409 16.9321 48.1191C19.607 50.4972 23.0839 51.8131 26.688 51.8125C33.4912 51.8124 39.6206 47.3146 41.2544 41.0879C41.306 40.9186 41.423 40.7746 41.5815 40.6865C41.7404 40.5984 41.9288 40.5741 42.106 40.6191C42.2828 40.6642 42.4343 40.7746 42.5288 40.9258C42.6223 41.0754 42.6532 41.2539 42.6167 41.4248C40.8352 48.2299 34.1399 53.1874 26.688 53.1875C22.7033 53.1834 18.8645 51.7127 15.9272 49.0664C12.9902 46.4202 11.1667 42.7891 10.814 38.8887C10.4614 34.9883 11.6052 31.0983 14.021 27.9844C16.4369 24.8704 19.9506 22.7573 23.8716 22.0615L24.0786 22.0244V17.5273Z" fill="black" stroke="white" stroke-width="0.5"/>
</svg>
