<svg width="50" height="50" viewBox="0 0 50 50" fill="none" xmlns="http://www.w3.org/2000/svg">
<path d="M23.9584 6.25C29.2075 6.25 34.2416 8.33519 37.9532 12.0468C41.6649 15.7585 43.7501 20.7926 43.7501 26.0417C43.7501 31.2907 41.6649 36.3248 37.9532 40.0365C34.2416 43.7481 29.2075 45.8333 23.9584 45.8333C18.7093 45.8333 13.6753 43.7481 9.96359 40.0365C6.25194 36.3248 4.16675 31.2907 4.16675 26.0417C4.16675 20.7926 6.25194 15.7585 9.96359 12.0468C13.6753 8.33519 18.7093 6.25 23.9584 6.25ZM23.9584 8.33333C19.2619 8.33333 14.7577 10.199 11.4367 13.52C8.11578 16.8409 6.25008 21.3451 6.25008 26.0417C6.25008 30.7382 8.11578 35.2424 11.4367 38.5634C14.7577 41.8843 19.2619 43.75 23.9584 43.75C26.2839 43.75 28.5866 43.292 30.7351 42.402C32.8836 41.5121 34.8357 40.2077 36.4801 38.5634C38.1245 36.919 39.4289 34.9668 40.3188 32.8184C41.2087 30.6699 41.6667 28.3672 41.6667 26.0417C41.6667 21.3451 39.8011 16.8409 36.4801 13.52C33.1591 10.199 28.655 8.33333 23.9584 8.33333ZM22.9167 14.5833H25.0001V25.875L34.7917 31.5208L33.7501 33.3333L22.9167 27.0833V14.5833Z" fill="black"/>
</svg>
