<svg width="69" height="70" viewBox="0 0 69 70" fill="none" xmlns="http://www.w3.org/2000/svg">
<path d="M50.6709 2.6875L50.9668 2.69531C52.4396 2.77101 53.838 3.39801 54.8877 4.46289C55.9375 5.52791 56.5578 6.94941 56.6328 8.44922L56.6406 8.75098V63.4375C56.6393 64.4671 56.2351 65.4528 55.5195 66.1787C54.8041 66.9043 53.8356 67.3113 52.8271 67.3125H16.1729C15.1644 67.3113 14.1959 66.9043 13.4805 66.1787C12.8096 65.4982 12.4123 64.5892 12.3643 63.6299L12.3594 63.4365V8.75098C12.3612 7.14122 12.9924 5.59901 14.1123 4.46289C15.162 3.39801 16.5604 2.77101 18.0332 2.69531L18.3291 2.6875H50.6709ZM15.6719 63.9375H53.3281V32.3125H15.6719V63.9375ZM53.3281 8.74902C53.3272 8.03912 53.0487 7.35668 52.5518 6.85254C52.0546 6.34833 51.379 6.06349 50.6729 6.0625H18.3271C17.621 6.06349 16.9454 6.34833 16.4482 6.85254C15.9513 7.35668 15.6728 8.03912 15.6719 8.74902V28.9375H53.3281V8.74902Z" fill="white"/>
<path d="M50.6709 2.6875L50.9668 2.69531C52.4396 2.77101 53.838 3.39801 54.8877 4.46289C55.9375 5.52791 56.5578 6.94941 56.6328 8.44922L56.6406 8.75098V63.4375C56.6393 64.4671 56.2351 65.4528 55.5195 66.1787C54.8041 66.9043 53.8356 67.3113 52.8271 67.3125H16.1729C15.1644 67.3113 14.1959 66.9043 13.4805 66.1787C12.8096 65.4982 12.4123 64.5892 12.3643 63.6299L12.3594 63.4365V8.75098C12.3612 7.14122 12.9924 5.59901 14.1123 4.46289C15.162 3.39801 16.5604 2.77101 18.0332 2.69531L18.3291 2.6875H50.6709ZM15.6719 63.9375H53.3281V32.3125H15.6719V63.9375ZM53.3281 8.74902C53.3272 8.03912 53.0487 7.35668 52.5518 6.85254C52.0546 6.34833 51.379 6.06349 50.6729 6.0625H18.3271C17.621 6.06349 16.9454 6.34833 16.4482 6.85254C15.9513 7.35668 15.6728 8.03912 15.6719 8.74902V28.9375H53.3281V8.74902Z" stroke="white"/>
<path d="M50.6709 2.6875L50.9668 2.69531C52.4396 2.77101 53.838 3.39801 54.8877 4.46289C55.9375 5.52791 56.5578 6.94941 56.6328 8.44922L56.6406 8.75098V63.4375C56.6393 64.4671 56.2351 65.4528 55.5195 66.1787C54.8041 66.9043 53.8356 67.3113 52.8271 67.3125H16.1729C15.1644 67.3113 14.1959 66.9043 13.4805 66.1787C12.8096 65.4982 12.4123 64.5892 12.3643 63.6299L12.3594 63.4365V8.75098C12.3612 7.14122 12.9924 5.59901 14.1123 4.46289C15.162 3.39801 16.5604 2.77101 18.0332 2.69531L18.3291 2.6875H50.6709ZM15.6719 63.9375H53.3281V32.3125H15.6719V63.9375ZM53.3281 8.74902C53.3272 8.03912 53.0487 7.35668 52.5518 6.85254C52.0546 6.34833 51.379 6.06349 50.6729 6.0625H18.3271C17.621 6.06349 16.9454 6.34833 16.4482 6.85254C15.9513 7.35668 15.6728 8.03912 15.6719 8.74902V28.9375H53.3281V8.74902Z" stroke="#7B846F"/>
<path d="M22.7188 39.2812V50.4062H20.4062V39.2812H22.7188ZM22.7188 15.2188V21.9688H20.4062V15.2188H22.7188Z" fill="white" stroke="white" stroke-width="2"/>
</svg>
