<svg width="24" height="24" viewBox="0 0 24 24" fill="none" xmlns="http://www.w3.org/2000/svg">
<path d="M4 11.452V16.8C4 17.92 4 18.48 4.218 18.909C4.41 19.285 4.715 19.591 5.092 19.782C5.519 20 6.079 20 7.197 20H16.803C17.921 20 18.48 20 18.907 19.782C19.2835 19.5907 19.5898 19.2851 19.782 18.909C20 18.481 20 17.922 20 16.804V11.452C20 10.918 20 10.651 19.935 10.402C19.8774 10.1819 19.7827 9.97322 19.655 9.78497C19.51 9.57197 19.31 9.39497 18.907 9.04397L14.107 4.84397C13.361 4.19097 12.987 3.86397 12.567 3.73997C12.197 3.62997 11.803 3.62997 11.432 3.73997C11.012 3.86397 10.64 4.18997 9.894 4.84197L5.093 9.04397C4.691 9.39597 4.49 9.57197 4.346 9.78397C4.2178 9.97245 4.12276 10.1815 4.065 10.402C4 10.65 4 10.918 4 11.452Z" stroke="black" stroke-width="2" stroke-linecap="round" stroke-linejoin="round"/>
</svg>
