<svg width="25" height="32" viewBox="0 0 25 32" fill="none" xmlns="http://www.w3.org/2000/svg">
<path d="M12.3265 30.5603C12.3265 30.5603 23.6531 21.8786 23.6531 12.4733C23.6531 6.47999 18.5818 1.62109 12.3265 1.62109C6.07126 1.62109 1 6.47999 1 12.4733C1 21.8786 12.3265 30.5603 12.3265 30.5603Z" stroke="black" stroke-width="2" stroke-linejoin="round"/>
<path d="M12.3268 16.8146C12.9217 16.8146 13.5109 16.7023 14.0605 16.4841C14.6102 16.266 15.1097 15.9463 15.5304 15.5432C15.9511 15.1401 16.2848 14.6615 16.5125 14.1349C16.7402 13.6082 16.8574 13.0437 16.8574 12.4737C16.8574 11.9036 16.7402 11.3392 16.5125 10.8125C16.2848 10.2859 15.9511 9.80732 15.5304 9.40423C15.1097 9.00114 14.6102 8.68139 14.0605 8.46324C13.5109 8.24509 12.9217 8.13281 12.3268 8.13281C11.1252 8.13281 9.97278 8.59015 9.12313 9.40423C8.27347 10.2183 7.79614 11.3224 7.79614 12.4737C7.79614 13.625 8.27347 14.7291 9.12313 15.5432C9.97278 16.3572 11.1252 16.8146 12.3268 16.8146Z" stroke="black" stroke-width="2" stroke-linejoin="round"/>
</svg>
